<svg width="30" height="33" viewBox="0 0 30 33" fill="none" xmlns="http://www.w3.org/2000/svg">
<path d="M22.3432 0.0163816C22.2648 -0.0613629 19.4378 0.04707 16.9778 2.41419C14.5177 4.77926 14.8962 7.49213 14.9516 7.56169C15.007 7.63125 18.4593 7.73969 20.6632 4.98794C22.8671 2.23619 22.4217 0.096172 22.3432 0.0163816ZM29.991 24.021C29.8802 23.8246 24.6256 21.4964 25.1148 17.0199C25.604 12.5435 28.9802 11.3139 29.0333 11.1809C29.0864 11.0479 27.6556 9.56464 26.1394 8.81379C25.026 8.28492 23.7941 7.98166 22.5324 7.92586C22.2832 7.91973 21.4178 7.7315 19.6386 8.16319C18.4662 8.44757 15.8239 9.36823 15.097 9.40506C14.3677 9.44188 12.1985 8.33709 9.86535 8.04453C8.37225 7.78879 6.78915 8.31254 5.65606 8.71558C4.52528 9.11658 2.37448 10.2582 0.869841 13.2923C-0.634795 16.3243 0.152138 21.1281 0.715223 22.6216C1.27831 24.1151 2.15755 26.558 3.65296 28.342C4.9822 30.3552 6.74531 31.7525 7.48147 32.2272C8.21763 32.7018 10.2946 33.0169 11.7346 32.3642C12.8931 31.7341 14.9839 31.372 15.81 31.3986C16.5231 31.4216 17.8362 31.6408 19.2553 32.2101C19.705 32.3905 20.1524 32.5896 20.6309 32.6657C21.691 32.8344 22.7121 32.6552 23.7348 32.2865C24.9832 31.8343 26.7902 30.1199 28.8995 26.6439C29.6995 25.0276 30.0633 24.1533 29.991 24.021Z" fill="white"/>
</svg>
